# xmcd CD database file
#
# Track frame offsets:
#	150
#	1932
#	14486
#	29353
#	45386
#	58764
#	72958
#	85310
#	101232
#	118226
#	130481
#	148248
#	169868
#	185848
#	201724
#	217093
#
# Disc length: 3103 seconds
#
# Revision: 0
# Processed by: cddbd v1.5.2PL0 Copyright (c) Steve Scherf et al.
# Submitted via: CDex 1.70beta2
#
DISCID=000c1d10
DTITLE=BossHoss - Rodeo Radio
DYEAR=2006
DGENRE=Country
TTITLE0=Intro
TTITLE1=Rodeo Radio
TTITLE2=Ring Ring Ring
TTITLE3=My Favorite Game
TTITLE4=I Say A Little Prayer
TTITLE5=I'm On High
TTITLE6=Hell Yeah
TTITLE7=Hot Stuff
TTITLE8=Rodeo Queen
TTITLE9=It's Not Unusual
TTITLE10=Shake A Leg
TTITLE11=Mary Marry Me
TTITLE12=Jesus Build My Hotrod
TTITLE13=Upside Down
TTITLE14=Ca Plan Pour Moi
TTITLE15=You'll Never Walk Alone
EXTD=YEAR: 2006
EXTT0=
EXTT1=
EXTT2=
EXTT3=
EXTT4=
EXTT5=
EXTT6=
EXTT7=
EXTT8=
EXTT9=
EXTT10=
EXTT11=
EXTT12=
EXTT13=
EXTT14=
EXTT15=
PLAYORDER=
